<?xml version="1.0" encoding="utf-8"?>
<?xml-stylesheet type="text/xsl" href="rss1.xsl"?>
<rss version="2.0" xmlns:atom="http://www.w3.org/2005/Atom" xmlns:content="http://purl.org/rss/1.0/modules/content/" xmlns:dc="http://purl.org/dc/elements/1.1/" xmlns:media="http://search.yahoo.com/mrss/">
<channel>
 <title>Getty</title>
 <link>http://www.gettyimg.com/</link>
 <atom:link href="http://www.gettyimg.com/" rel="self" type="application/rss+xml" />

 
                <item>
                <title><![CDATA[【SD Live Performances】SDTV - Mariah Carey - It's Like That (Live at BET Blueprint 2005)]]></title>
                <link><![CDATA[https://sharemania.us/threads/mariah-carey-its-like-that-live-at-bet-blueprint-2005.226416/]]></link>
                <description><![CDATA[<article>
<blockquote class="messageText SelectQuoteContainer ugc baseHtml">
Requested by <a href="https://sharemania.us/members/705/" class="username" data-user="705, @SCANDAL">@SCANDAL</a> <br>
<br>
<img src="https://lh3.googleusercontent.com/drive-viewer/AITFw-yzvEYabotniBVjKRRtUNkJHLFdTcj5tzfNNauXOJ4LsmWQ1X24K2Ynsa96ARyThJ3Kz2Xl7HsyHTLbc6Teq3UNFau11A=s1600" class="bbCodeImage LbImage" alt="[​IMG]" data-url="https://lh3.googleusercontent.com/drive-viewer/AITFw-yzvEYabotniBVjKRRtUNkJHLFdTcj5tzfNNauXOJ4LsmWQ1X24K2Ynsa96ARyThJ3Kz2Xl7HsyHTLbc6Teq3UNFau11A=s1600" style=""> <br>
<div class="ToggleTriggerAnchor bbCodeSpoilerContainer">
<button type="button" class="button bbCodeSpoilerButton ToggleTrigger Tooltip JsOnly" data-target="> .SpoilerTarget"><span>Spoiler: <span class="SpoilerTitle">Media Info</span></span></button>
<div class="SpoilerTarget bbCodeSpoilerText">
<div class="bbCodeBlock bbCodeCode">
<div class="type">Code:</div>
<pre>General
Complete name                            : It's Like That (Live Bet Blueprint 2005 SHQ).mpg
Format                                   : MPEG-PS
File size                                : 229 MiB
Duration                                 : 3 min 23 s
Overall bit rate mode                    : Constant
Overall bit rate                         : 9 445 kb/s

Video
ID                                       : 224 (0xE0)
Format                                   : MPEG Video
Format version                           : Version 2
Format profile                           : Main@Main
Format settings                          : BVOP
Format settings, BVOP                    : Yes
Format settings, Matrix                  : Default
Format settings, GOP                     : M=3, N=15
Duration                                 : 3 min 23 s
Bit rate mode                            : Constant
Bit rate                                 : 9 000 kb/s
Width                                    : 720 pixels
Height                                   : 480 pixels
Display aspect ratio                     : 4:3
Frame rate                               : 29.970 (30000/1001) FPS
Standard                                 : NTSC
Color space                              : YUV
Chroma subsampling                       : 4:2:0
Bit depth                                : 8 bits
Scan type                                : Progressive
Compression mode                         : Lossy
Bits/(Pixel*Frame)                       : 0.869
Time code of first frame                 : 00:00:00:00
Time code source                         : Group of pictures header
GOP, Open/Closed                         : Open
GOP, Open/Closed of first frame          : Closed
Stream size                              : 217 MiB (95%)
Color primaries                          : BT.470 System M
Transfer characteristics                 : BT.470 System M
Matrix coefficients                      : BT.470 System B/G

Audio
ID                                       : 192 (0xC0)
Format                                   : MPEG Audio
Format version                           : Version 1
Format profile                           : Layer 2
Duration                                 : 3 min 23 s
Bit rate mode                            : Constant
Bit rate                                 : 320 kb/s
Channel(s)                               : 2 channels
Sampling rate                            : 48.0 kHz
Frame rate                               : 41.667 FPS (1152 SPF)
Compression mode                         : Lossy
Stream size                              : 7.76 MiB (3%)
</pre>
</div></div>
</div>
<div class="bbCodeBlock bbCodeVfcHH HiddenContent">
<div class="attribution type">Hidden Content:</div>
<blockquote>You must either reply or click 'Like' to see the hidden information contained here.</blockquote>
</div>
<div class="messageTextEndMarker">&nbsp;</div>
</blockquote>
</article>]]></description>
                <author><![CDATA[jempolgede]]></author>
                </item>

                </channel></rss>